<svg width="147" height="32" viewBox="0 0 147 32" fill="none" xmlns="http://www.w3.org/2000/svg">
<path d="M22.9794 19.2332C22.092 20.1639 21.6392 21.2883 21.6392 22.6066C21.6392 23.9057 22.092 25.0301 22.9794 25.9801C23.9045 26.9106 24.9995 27.376 26.2645 27.376C27.5483 27.376 28.6432 26.9106 29.5495 25.9801C30.4558 25.0301 30.909 23.9057 30.909 22.6066C30.909 21.2883 30.4558 20.1639 29.5495 19.2332C28.6432 18.3026 27.5483 17.8372 26.2645 17.8372C24.9995 17.8372 23.9045 18.3026 22.9794 19.2332ZM20.0155 29.0433C18.2785 27.2596 17.3911 25.1076 17.3911 22.6066C17.3911 20.0861 18.2785 17.9535 20.0155 16.1894C21.7523 14.3864 23.829 13.4944 26.2645 13.4944C28.7188 13.4944 30.7957 14.3864 32.5323 16.1894C34.2693 17.9535 35.138 20.0861 35.138 22.6066C35.138 25.1076 34.2693 27.2596 32.5323 29.0433C30.7957 30.8269 28.7188 31.7188 26.2645 31.7188C23.829 31.7188 21.7523 30.8269 20.0155 29.0433Z" fill="white"/>
<path d="M71.1603 15.8015C69.7253 14.2507 67.9505 13.4944 65.874 13.4944C63.8728 13.4944 62.1358 14.2313 60.701 15.7047C60.6629 15.7439 60.6254 15.783 60.5883 15.8227C60.5512 15.783 60.5136 15.7439 60.4757 15.7047C59.0596 14.2313 57.3415 13.4944 55.3025 13.4944C53.2258 13.4944 51.4699 14.2507 50.0164 15.8015C48.5815 14.2507 46.8068 13.4944 44.7301 13.4944C42.7289 13.4944 40.9919 14.2313 39.557 15.7047C38.1224 17.1782 37.4048 18.9425 37.4048 21.0362V31.7188H41.5584V21.0362C41.5584 20.1249 41.8793 19.3496 42.4832 18.7096C43.1253 18.0699 43.8616 17.7598 44.7301 17.7598C45.6174 17.7598 46.3726 18.0699 46.9956 18.7096C47.6186 19.3496 47.9206 20.1249 47.9206 21.0362V31.7188H52.112V21.0362C52.112 20.1249 52.4328 19.3496 53.0558 18.7096C53.679 18.0699 54.434 17.7598 55.3025 17.7598C56.1899 17.7598 56.9451 18.0699 57.5494 18.7096C58.1911 19.3496 58.4931 20.1249 58.4931 21.0362V31.7188H58.5489H62.7023V21.0362C62.7023 20.1249 63.0232 19.3496 63.6273 18.7096C64.2692 18.0699 65.0057 17.7598 65.874 17.7598C66.7612 17.7598 67.5165 18.0699 68.1395 18.7096C68.7624 19.3496 69.0645 20.1249 69.0645 21.0362V31.7188H73.2559V21.0362C73.2559 20.1249 73.5769 19.3496 74.1998 18.7096C74.8228 18.0699 75.5781 17.7598 76.4464 17.7598C77.3336 17.7598 78.089 18.0699 78.6931 18.7096C79.335 19.3496 79.637 20.1249 79.637 21.0362V31.7188H83.7717V21.0362C83.7717 18.9425 83.0541 17.1782 81.6195 15.7047C80.2035 14.2313 78.4854 13.4944 76.4464 13.4944C74.3697 13.4944 72.614 14.2507 71.1603 15.8015Z" fill="url(#paint0_linear_435_9700)"/>
<path d="M94.5596 31.7188C92.143 31.7188 90.0851 30.8271 88.3859 29.0821C86.6869 27.3372 85.8184 25.224 85.8184 22.7423V13.4946H90.0285V22.7423C90.0285 24.0218 90.4815 25.127 91.3502 26.0577C92.2563 26.9689 93.3325 27.434 94.5785 27.434C95.8245 27.434 96.9007 26.9689 97.807 26.0577C98.6942 25.127 99.1285 24.0218 99.1285 22.7423V13.4946H103.339V22.7423C103.339 25.224 102.489 27.3372 100.771 29.0821C99.0717 30.8271 97.014 31.7188 94.5974 31.7188H94.5596Z" fill="white"/>
<path d="M114.496 17.818C113.212 17.818 112.117 18.2834 111.192 19.214C110.286 20.1445 109.833 21.2884 109.833 22.6067C109.833 23.9057 110.286 25.0302 111.192 25.9803C112.117 26.9107 113.212 27.376 114.496 27.376C115.78 27.376 116.875 26.9107 117.781 25.9803C118.688 25.0302 119.122 23.9057 119.122 22.6067C119.122 21.2884 118.688 20.1445 117.781 19.214C116.875 18.2834 115.78 17.818 114.496 17.818ZM123.37 22.6067C123.37 25.1078 122.501 27.2596 120.745 29.0433C119.027 30.8271 116.951 31.7188 114.496 31.7188C112.042 31.7188 109.946 30.8271 108.209 29.0433C106.472 27.2596 105.604 25.1078 105.604 22.6067C105.604 20.0863 106.472 17.9343 108.209 16.17C109.946 14.367 112.042 13.4752 114.496 13.4752C116.233 13.4752 117.8 13.9212 119.197 14.8323V0.00100802H123.37V22.6067Z" fill="white"/>
<path d="M129.807 31.7188H125.635V0.00100802H129.807V31.7188Z" fill="white"/>
<path d="M138.921 18.0231C138.373 18.2296 137.875 18.5529 137.428 18.9932C136.981 19.434 136.629 19.9261 136.374 20.4696H142.755V24.6882H136.374C136.812 25.6069 137.428 26.3052 138.223 26.7832C139.017 27.2614 139.842 27.5004 140.701 27.5004C141.321 27.5004 141.924 27.3835 142.508 27.1489C143.092 26.9148 143.622 26.554 144.097 26.066L147 29.0472C146.141 29.9287 145.169 30.594 144.083 31.0439C142.997 31.4939 141.869 31.7188 140.701 31.7188C139.313 31.7188 138.072 31.4473 136.976 30.9032C135.881 30.3597 134.95 29.6518 134.183 28.7801C133.416 27.9081 132.828 26.9287 132.416 25.841C132.006 24.754 131.8 23.6663 131.8 22.579C131.8 21.2105 132.061 19.9635 132.581 18.8386C133.101 17.7137 133.776 16.7531 134.608 15.956C135.438 15.1593 136.387 14.5407 137.456 14.0997C138.524 13.6595 139.605 13.4388 140.701 13.4388C141.869 13.4388 142.997 13.664 144.083 14.1139C145.169 14.5639 146.141 15.2295 147 16.1106L144.097 19.0915C143.622 18.6043 143.092 18.2435 142.508 18.0089C141.924 17.7746 141.321 17.6574 140.701 17.6574C140.062 17.6574 139.469 17.7795 138.921 18.0231Z" fill="white"/>
<path d="M13.285 25.0299L16.7657 27.7105C16.4176 28.2467 16.0116 28.7633 15.5281 29.2596C13.7491 31.0865 11.6026 32 9.0888 32C6.59425 32 4.46699 31.0865 2.68799 29.2596C0.908981 27.4326 0 25.2285 0 22.6666C0 20.0851 0.908981 17.9007 2.68799 16.0938C4.46699 14.247 6.59425 13.3335 9.0888 13.3335C11.6026 13.3335 13.7491 14.247 15.5281 16.0938C16.0116 16.5704 16.4176 17.0669 16.7657 17.623L13.285 20.3036C13.0723 19.9065 12.8016 19.5491 12.4728 19.2115C11.5446 18.2584 10.4037 17.7816 9.0888 17.7816C7.79312 17.7816 6.67148 18.2584 5.72388 19.2115C4.81507 20.1647 4.35114 21.3164 4.35114 22.6666C4.35114 23.9974 4.81507 25.149 5.72388 26.1221C6.67148 27.0751 7.79312 27.5517 9.0888 27.5517C10.4037 27.5517 11.5446 27.0751 12.4728 26.1221C12.8208 25.7647 13.0915 25.407 13.285 25.0299Z" fill="white"/>
<path d="M72.5676 6.80105C72.5676 9.1578 74.428 11.0684 76.7231 11.0684C79.0183 11.0684 80.8786 9.1578 80.8786 6.80105C80.8786 4.44413 79.0183 2.53357 76.7231 2.53357C74.428 2.53357 72.5676 4.44413 72.5676 6.80105ZM61.9407 6.80105C61.9407 9.1578 63.8014 11.0684 66.0964 11.0684C68.3916 11.0684 70.2521 9.1578 70.2521 6.80105C70.2521 4.44413 68.3916 2.53357 66.0964 2.53357C63.8014 2.53357 61.9407 4.44413 61.9407 6.80105ZM51.3645 6.80105C51.3645 9.1578 53.225 11.0684 55.52 11.0684C57.8152 11.0684 59.6757 9.1578 59.6757 6.80105C59.6757 4.44413 57.8152 2.53357 55.52 2.53357C53.225 2.53357 51.3645 4.44413 51.3645 6.80105ZM40.6177 6.80105C40.6177 9.1578 42.4783 11.0684 44.7733 11.0684C47.0685 11.0684 48.929 9.1578 48.929 6.80105C48.929 4.44413 47.0685 2.53357 44.7733 2.53357C42.4783 2.53357 40.6177 4.44413 40.6177 6.80105Z" fill="url(#paint1_linear_435_9700)"/>
<defs>
<linearGradient id="paint0_linear_435_9700" x1="37.4049" y1="22.6066" x2="83.7716" y2="22.6066" gradientUnits="userSpaceOnUse">
<stop stop-color="#546DFF"/>
<stop offset="1" stop-color="#26AAFF"/>
</linearGradient>
<linearGradient id="paint1_linear_435_9700" x1="40.6178" y1="6.80093" x2="80.8787" y2="6.80093" gradientUnits="userSpaceOnUse">
<stop stop-color="#546DFF"/>
<stop offset="1" stop-color="#26AAFF"/>
</linearGradient>
</defs>
</svg>
